# xmcd CD database file
#
# Track frame offsets:
#	150
#	14842
#	28756
#	50720
#	63004
#	89355
#	106556
#	143476
#	160938
#
# Disc length: 2379 seconds
#
# Revision: 0
# Processed by: cddbd v1.5.2PL0 Copyright (c) Steve Scherf et al.
# Submitted via: CDex 2.02
#
DISCID=6d094909
DTITLE=Avey Brothers - Devil In My Bed
DYEAR=1900
DGENRE=Blues
TTITLE0=Devil In My Bed
TTITLE1=Worried Mind
TTITLE2=My Little Girl
TTITLE3=She's Evil
TTITLE4=Nobody Home
TTITLE5=Got To Work
TTITLE6=Restless
TTITLE7=Garbage Man
TTITLE8=Her Mind Is Gone
EXTD=
EXTT0=
EXTT1=
EXTT2=
EXTT3=
EXTT4=
EXTT5=
EXTT6=
EXTT7=
EXTT8=
PLAYORDER=
